<?xml version="1.0" encoding="UTF-8" standalone="no"?><!DOCTYPE svg PUBLIC "-//W3C//DTD SVG 1.1//EN" "http://www.w3.org/Graphics/SVG/1.1/DTD/svg11.dtd"><svg width="100%" height="100%" viewBox="0 0 1636 1636" version="1.1" xmlns="http://www.w3.org/2000/svg" xmlns:xlink="http://www.w3.org/1999/xlink" xml:space="preserve" xmlns:serif="http://www.serif.com/" style="fill-rule:evenodd;clip-rule:evenodd;stroke-linejoin:round;stroke-miterlimit:2;"><path d="M815.556,-0.003c-450.603,1.112 -815.556,366.744 -815.556,817.619c0,450.315 364.05,815.612 813.897,817.615l7.447,0c449.853,-2.003 813.897,-367.3 813.897,-817.615c0,-450.875 -364.947,-816.507 -815.56,-817.619l-4.125,0Z" style="fill:url(#_Radial1);fill-rule:nonzero;"/><path d="M312.563,215.209c-142.907,116.894 -215.497,265 -252.272,390.404c-31.91,102.634 -34.119,176.725 -34.119,176.725c0.253,-1.888 0.541,-3.738 0.803,-5.613c-5.472,54.978 -3.809,89.4 -3.809,89.4c22.015,-421.978 306.634,-629.725 306.634,-629.725c290.913,-242.372 629.3,-195.778 629.3,-195.778c-45.512,-7.244 -89.219,-10.444 -130.85,-10.447c-316.622,-0.016 -515.688,185.034 -515.688,185.034Z" style="fill:url(#_Linear2);fill-rule:nonzero;"/><path d="M1311.37,1398.28c-290.919,242.375 -629.31,195.775 -629.31,195.775c391.629,62.332 646.535,-174.581 646.535,-174.581c142.919,-116.897 215.509,-265.003 252.287,-390.406c31.907,-102.631 34.116,-176.741 34.116,-176.741c-0.259,1.894 -0.544,3.753 -0.803,5.628c5.478,-54.978 3.809,-89.394 3.809,-89.394c-22.012,421.963 -306.634,629.719 -306.634,629.719Z" style="fill:url(#_Linear3);fill-rule:nonzero;"/><path d="M362.695,536.541c0,0 -4.816,-2.653 -5.957,-8.665c0,0 0.688,-3.904 4.266,-4.172c0,0 10.35,3.625 10.406,10.793c0,0 1.413,6.951 -8.715,2.044m5.581,-25.853c-16.753,2.106 -15.306,22.603 -15.306,22.603c2.903,17.582 18.834,15.413 18.834,15.413c2.722,-1.103 3.616,1.306 3.616,1.306l2.306,4.997c5.7,10.734 8.281,-0.775 8.281,-0.775c4.535,-17.872 4.06,-23.678 4.06,-23.678c-0.169,-20.856 -21.791,-19.866 -21.791,-19.866m160.772,10.422c0.456,9.928 -4.66,13.95 -4.66,13.95c-13.278,3.019 -8.437,-9.544 -8.437,-9.544c4.037,-2.872 7.778,-6.694 7.778,-6.694c5.816,-3.006 5.319,2.288 5.319,2.288m1.269,-10.309c-12.204,-15.007 -27.6,-1.272 -27.6,-1.272c-5.994,8.456 -5.172,16.884 -5.172,16.884c-2.438,13.222 -1.785,20.713 -1.785,20.713c1.041,4.665 5.547,2.225 5.547,2.225c3.769,-2.697 7.044,-8.172 7.044,-8.172c0.372,-0.828 2.037,-0.313 2.037,-0.313c12.969,3.185 17.91,-3.665 17.91,-3.665c12.728,-12.304 2.019,-26.4 2.019,-26.4m-95.563,90.946c1.678,-7.028 14.388,-2.5 14.388,-2.5c13.446,2.829 8.1,5.085 8.1,5.085c-8.225,2.515 -8.06,2.556 -13.385,4.528c-13.362,1.747 -9.103,-7.113 -9.103,-7.113m31.566,17.472c0,0 12.606,-17.934 -9.15,-27.25c0,0 -10.153,-3.628 -20.997,1.782c0,0 -15.75,12.796 -4.863,27.525c0,0 20.675,7.775 35.01,-2.057m33.75,16.291c0,0 -18.76,11.556 -40.157,-1.706c0,0 -4.275,-5.682 -7.131,0.543c0,0 -0.14,7.482 -27.712,19.907c0,0 -8.697,3.634 -12.113,6.053c-1.356,0.975 0.553,1.89 7.438,2.553c0,0 20.334,-0.144 37.022,-17.416c0,0 20.59,5.419 36.753,1.116c0,0 11.234,-3.844 11.031,-10.144c0,0 1.656,-1.959 -5.131,-0.906" style="fill:#181715;fill-rule:nonzero;"/><path d="M528.299,537.2c0,0 -4.941,6.85 -17.909,3.669c0,0 -1.669,-0.519 -2.038,0.309c0,0 -3.275,5.475 -7.044,8.175c0,0 -4.506,2.438 -5.55,-2.225c0,0 -0.653,-7.494 1.788,-20.715c0,0 -0.822,-8.429 5.172,-16.885c0,0 15.397,-13.734 27.597,1.275c0,0 10.709,14.094 -2.016,26.397m-142.294,17.031c0,0 -2.578,11.51 -8.281,0.778l-2.303,-4.996c0,0 -0.897,-2.413 -3.616,-1.31c0,0 -15.931,2.169 -18.834,-15.412c0,0 -1.447,-20.494 15.306,-22.603c0,0 21.622,-0.991 21.791,19.865c0,0 0.475,5.806 -4.063,23.678m846.625,438.869c-27.39,-37.641 -36.965,-54.856 -36.965,-54.856c-10.25,-11.65 -14.613,-43.46 -14.613,-43.46c-4.809,-42.621 -14.784,-76.996 -14.784,-76.996c-39.025,-163.879 -158.256,-218.932 -158.256,-218.932c-72.982,-36.89 -143.735,-28.047 -143.735,-28.047c-23.45,-0.1 -63.628,16.535 -63.628,16.535c-22.891,7.603 -121.884,44.315 -121.884,44.315c-11.135,4.907 -13.503,-3.265 -13.503,-3.265c-3.688,-9.022 -10.479,-8.728 -10.479,-8.728c-10.378,-1.907 -12.781,4.315 -12.781,4.315c-2.575,7.897 -13.678,11.007 -13.678,11.007c-49.369,8.906 -62.584,-49.21 -62.584,-49.21l-0.288,-0.062c-5.65,-17 -4.175,-19.538 -4.175,-19.538c1.425,-11.39 -6.05,-21.35 -6.05,-21.35c-4.562,-11.559 1.219,-22.759 1.219,-22.759c5.694,-11.525 8.444,-24.631 8.444,-24.631c4.59,-21.869 -8.175,-36.797 -8.175,-36.797c-11.819,-17.757 -29.96,-17.972 -29.96,-17.972c-9.025,-0.394 -16.022,10.153 -16.022,10.153c-5.334,6.978 -13.637,10.887 -13.637,10.887c-15.059,7.179 -24.903,-0.975 -24.903,-0.975c-9.694,-9.912 -30.494,-12.534 -30.494,-12.534c-33.653,-2.044 -50.522,15.409 -50.522,15.409c-4.387,5.804 -12.409,7.222 -12.409,7.222c-11.725,0.757 -13.185,-5.915 -13.185,-5.915c-6.471,-13.228 -17.112,-14.353 -17.112,-14.353c-20.959,-1.76 -32.359,20.556 -32.359,20.556c-11.754,24.184 1.493,62.187 1.493,62.187c1.538,7.878 17.653,56.941 17.653,56.941c1.257,2.947 0.497,6.672 0.497,6.672c-2.547,9.04 0.472,12.962 0.472,12.962c1.263,5.7 22.063,28.694 22.063,28.694c6.022,9.209 23.118,10.525 23.118,10.525c4.847,0.247 4.707,5.819 4.707,5.819c-0.307,5.775 5.912,11.862 5.912,11.862c5.15,6.022 4.722,16.632 4.722,16.632c-1.2,7.453 9.216,17.35 9.216,17.35c3.078,2.343 43.875,46.387 43.875,46.387c9.64,3.491 4.681,-2.45 4.681,-2.45c-23.659,-22.972 -43.953,-49.406 -43.953,-49.406c-1.885,-3.003 -1.328,-8.531 -1.328,-8.531c1.025,-13.257 -2.675,-25.735 -2.675,-25.735c-1.794,-7.372 -8.932,-11.815 -8.932,-11.815c-17.959,-8.225 -23.771,-11.232 -23.771,-11.232c-20.244,-15.54 -31.291,-32.362 -31.291,-32.362c-2.85,-3.178 -0.991,-8.11 -0.991,-8.11c3.153,-7.281 11.75,-1.737 11.75,-1.737c15.741,11.066 20.332,16.903 20.332,16.903c3.543,5.45 17.859,12.875 17.859,12.875c17.872,11.528 24.294,-2.591 24.294,-2.591c4.14,-9.125 1.75,-17.531 1.75,-17.531c-1.294,-3.744 -2.297,-10.422 -2.297,-10.422c-7.916,-18.387 0.462,-12.34 0.462,-12.34c26.782,8.843 62.041,-2.344 62.041,-2.344c5.403,1.731 0.406,11.503 0.406,11.503c-4.212,25.366 1.572,23.188 1.572,23.188c10.669,4.481 24.663,2.968 24.663,2.968c13.843,0.607 24.303,-20.415 24.303,-20.415c4.965,-20.45 14.153,-36.891 14.153,-36.891c9.65,-6.387 10.225,9.838 10.225,9.838c1.637,10.543 7.903,19.94 7.903,19.94c9.875,16.541 11.416,36.528 11.416,36.528c1.737,27.541 -9.788,63.191 -9.788,63.191c-4.072,9.922 -15.544,94.644 -15.544,94.644c-4.19,22.803 4.716,36.872 4.716,36.872c3.044,7.675 17.55,27.696 17.55,27.696c12.556,13.632 18.544,31.163 18.544,31.163c16.787,32.059 14.987,47.281 14.987,47.281c-2.972,27.669 -11.653,47.772 -11.653,47.772c-9.534,16.666 -29,21.431 -29,21.431c-15.109,4.222 -25.012,13.797 -25.012,13.797c-12.204,9.341 -10.344,22.056 -10.344,22.056c2.722,9.588 8.553,12.247 8.553,12.247c7.403,6.232 22.634,5.485 22.634,5.485c24.569,-0.438 33.047,-16.1 33.047,-16.1c5.7,-11.55 12.697,-10.447 12.697,-10.447c2.059,-0.088 8.228,1.287 8.228,1.287c11.169,0.663 19.453,-11.865 19.453,-11.865c5.45,-11.269 4.666,-19.932 4.666,-19.932c-0.409,-6.715 2.012,-16.765 2.012,-16.765c1.225,-6.963 4.704,-9.253 4.704,-9.253l10.603,-10.207c54.884,-50.534 60.731,-92.465 60.731,-92.465c4.459,-17.791 -5.681,-34.153 -6.166,-34.885c-4.684,-7.09 4.591,-8.59 4.591,-8.59c3.859,-0.663 10.069,1.547 10.069,1.547c8.034,5.556 13.756,5.565 13.756,5.565c11.5,3.369 17.578,-9.881 17.578,-9.881c4.853,-6.322 11.653,-6.228 11.653,-6.228c12.838,-0.428 15.431,6.062 15.431,6.062c6.554,13.938 20.532,13.244 20.532,13.244c9.865,0.185 15.462,-11.7 15.462,-11.7c2.341,-5.784 8.156,-7.181 8.156,-7.181c3.582,-0.041 9.466,-2.647 9.466,-2.647c24.022,-1.069 22.794,2.941 22.794,2.941c3.909,16.868 14.75,12.565 14.75,12.565c10.747,-8.34 15.903,4.438 15.903,4.438c14.359,25.169 37.456,8.484 37.456,8.484l10.819,1.631c8.606,3.675 0.322,11.654 0.322,11.654c-3.416,5.89 -12.991,10.634 -12.991,10.634c-20.925,14.941 -19.919,39.369 -19.919,39.369c0.235,25.656 14.041,42.09 14.041,42.09l20.572,28.982c18.262,28.562 29.091,36.009 29.091,36.009c13.275,24.159 -16.966,28.087 -16.966,28.087c-20.9,2.579 -41.644,5.875 -41.644,5.875c-27,3.841 -34.759,11.063 -34.759,11.063c-22.728,12.831 -18.222,27.853 -18.222,27.853c1.25,16.741 26.219,11.559 26.219,11.559c55.462,-8.722 207.531,-45.712 207.531,-45.712c26.478,-6.56 26.578,-21.747 26.578,-21.747l2.266,-12.831c2.353,-11.478 12.328,-14.682 12.328,-14.682c32.709,-6.806 44.806,11.197 44.806,11.197c20.813,27.46 22.422,51.563 22.422,51.563c3.597,55.172 -32.459,103.4 -32.459,103.4c-40.404,52.887 -67.188,88.14 -67.188,88.14c-9.381,14.163 -14.734,35.432 -14.734,35.432c-7.685,31.168 -5.532,37.981 -5.532,37.981c6.794,19.697 18.285,12.778 18.285,12.778c8.515,-5.081 33.928,-11.041 33.928,-11.041c43.6,-26.028 66.356,-73.637 66.356,-73.637c19.206,-27.35 41.738,-92.013 41.738,-92.013c19.528,-39.215 21.743,-68.356 21.743,-68.356c4.25,-70.603 -27.628,-102.781 -27.628,-102.781" style="fill:#e2020d;fill-rule:nonzero;"/><path d="M546.147,874.281c0,0 -0.479,-6.288 -34.613,-37.769c0,0 -14.35,-14.484 -41.897,-7.863c0,0 -31.194,3.594 -45.8,22.735c0,0 -25.875,24.165 -19.762,54.872c0,0 -0.025,13.184 15.193,13.518c0,0 7.763,3.413 13.925,-8.684c0,0 27.538,-44.991 61.604,-40.472c0,0 7.615,1.25 20.753,-0.059c3.893,-0.403 17.606,1.784 22.84,4.194c0,0 9.597,4.437 7.757,-0.472" style="fill:#e2020d;fill-rule:nonzero;"/><path d="M875.59,1005.75c15.207,-3.818 12.494,-10.434 12.494,-10.434c3.019,-7.044 -16.762,-19.55 -16.762,-19.55c-13.016,-6.613 -10.922,-22.488 -10.922,-22.488c-0.628,-4.437 5.734,-36.481 5.734,-36.481c0.259,-7.54 -5.994,-8.297 -5.994,-8.297c-9.868,-0.278 -30.637,-11.15 -30.637,-11.15c-7.816,-3.912 -2.6,6.738 -2.6,6.738c9.962,19.815 15.39,37.347 15.39,37.347c1.713,14.368 -6.34,15.828 -6.34,15.828c-15.938,11.972 -45.031,6.144 -45.031,6.144c-28.41,-5.744 -36.722,7.225 -36.722,7.225c-17.66,21.775 -0.885,35.175 -0.885,35.175c12.063,14.037 26.866,4.381 26.866,4.381c34.244,-11.278 65.797,-5.35 65.797,-5.35c18.634,2.95 29.612,0.912 29.612,0.912" style="fill:#e2020d;fill-rule:nonzero;"/><path d="M670.695,486.07c74.003,8.394 147.259,25.7 218.644,46.516c41.978,-26.022 -30.075,-50.538 -57.25,-58.097c-34.538,-9.594 -89.781,-0.947 -78.738,-44.722c8.172,-32.459 40.282,-31.05 69.835,-29.484c30.678,1.628 24.778,-28.891 0.522,-35.96c7.706,7.16 -85.582,-10.281 -35.676,-22.409c11.619,-8.041 137.863,3.034 87.419,-46.947c-17.144,-17.069 -145.247,3.178 -165.515,11.831c-61.544,41.881 10.7,36.844 3.637,72.391c-3.581,17.984 -1.387,63.728 -24.769,63.862c-24.39,0.138 -52.018,36.057 -18.109,43.019" style="fill:#161715;"/><path d="M1054.32,1324.46c2.754,-17.485 44.247,-131.76 -15.793,-110.566c-15.225,5.36 -103.494,121.441 -99.75,129.36c-6.928,-14.785 39.931,-165.079 -5.969,-158.847c-55.584,7.822 -25.578,63.962 -24.703,90.7c1.131,34.625 -76.391,143.05 -9.628,145.853c59.747,2.528 85.965,-110.616 125.084,-129.15c-18.206,8.675 -30.466,104.972 -22.306,116.556c43.231,61.416 52.334,-79.234 53.065,-83.906" style="fill:#161715;"/><path d="M1161.08,495.512c4.788,-15.278 62.76,-125.991 3.797,-113.45c-17.237,3.675 -114.384,106.35 -112.222,115.237c-3.9,-15.859 63.563,-160 20.688,-160.509c-56.863,-0.425 -32.369,79.188 -42.06,107.884c-2.365,7.032 -91.475,155.157 -16.371,122.535c49.021,-21.366 78.265,-94.028 123.496,-109.069c-18.003,5.975 -45.018,101.009 -39.509,113.831c29.247,68.11 60.75,-71.884 62.181,-76.459" style="fill:#161715;"/><path d="M1467.26,681.35c6.05,-16.741 68.147,-123.744 6.581,-109.65c-15.603,3.559 -122.766,107.163 -120.741,115.322c-3.746,-15.203 70.56,-156.756 25.419,-155.716c-54.687,1.522 -36.978,59.632 -41.403,85.825c-5.706,33.91 -101.103,131.228 -37.791,141.3c56.672,8.988 103.85,-98.484 144.929,-112.322c-19.101,6.454 -49.697,99.135 -44.188,111.332c29.269,64.697 65.584,-71.597 67.194,-76.091" style="fill:#161715;"/><path d="M584.088,1211.8c-13.74,2.038 -29.537,-0.15 -43.497,-0.218c4.078,-5.475 43.591,-68.257 56.557,-63.96c14.931,4.944 6.987,61.369 -13.06,64.178m78.531,4.188c-35.906,-7.569 9.794,-160.366 -74.228,-106.341c-28.318,18.213 -143.728,121.238 -124.247,133.969c-13.531,23.2 -51.868,77.744 3.357,57.225c20.584,-7.65 20.028,-53.691 45.434,-55.559c14.666,-1.057 78.959,-10.297 87.806,-1.735c11.575,11.213 -15.659,105.947 36.263,77.913c18.206,-9.825 1.015,-63.885 5.481,-78.635c-0.9,2.975 17.584,-20.809 20.134,-26.837" style="fill:#161715;"/><path d="M1406.06,466.432c-3.841,7.943 -57.935,14.556 -62.544,5.812c-21.6,-40.875 74.519,-30.566 62.544,-5.812m68.447,12.246c-3.582,-47.693 -112.941,-81.146 -145.413,-87.1c-15.3,-2.812 -155.534,-16.975 -122.09,35.429c28.334,44.434 123.462,-34.872 82.521,50.015c-9.103,18.703 -77.687,7.122 -63.931,54.853c1.644,5.585 29.722,-4.634 31.01,-0.175c5.571,18.744 -44.45,72.347 -50.322,92.719c-5.038,17.519 9.54,23.466 23.04,28.438c20.157,7.484 23.763,-17.375 32.269,-32.597c18.694,-33.447 33.103,-94.182 71.984,-101.572c22.729,-4.316 143.919,-2.41 140.932,-40.01" style="fill:#161715;"/><path d="M911.42,286.113c55.478,37.04 -7.384,180.465 -1.637,234.946c2.884,27.294 46.196,31.869 47.706,4.885c2.884,-51.085 12.6,-101.1 20.709,-151.497c7.853,-48.719 21.219,-10.872 55.66,-29.369c26.703,-14.347 -47.382,-65.837 -53.644,-69.162c-23.591,-12.541 -41.853,-33.947 -64.356,-48.235c-44.797,-28.325 -55.988,37.925 -4.438,58.432" style="fill:#161715;"/><path d="M908.149,1200.09c-8.134,-62.003 -157.187,-57 -195.85,-54.497c-78.294,5.14 -57.625,52.512 17.913,36.878c-3.307,16.587 -45.591,163.631 -19.782,167.866c56.166,9.253 27.588,-152.716 60.25,-173.657c66.388,-4.315 15.441,117.538 4.863,159.022c-10.488,41.16 31.509,29.15 37.812,-4.597c8.672,-46.543 18.122,-91.65 30.378,-137.447c11.169,4.135 68.847,41.022 64.416,6.432" style="fill:#161715;"/><path d="M691.255,281.414c-47.813,-47.681 -55.613,37.847 -81.357,62.881c-59.762,58.088 -98.912,-7.256 -74.196,-69.506c26.596,-67.085 -58.438,-34.9 -56.85,36.662c-2.275,69.925 56.731,103.75 118.59,82.978c6.547,32.41 -26.278,82.088 -0.79,111.066c34.112,38.803 66.346,-21.272 43.768,-20c-52.075,2.941 50.057,-181.162 50.835,-204.081" style="fill:#161715;"/><path d="M392.142,1166.85c2.584,20.6 -4.907,91.753 17.118,103.481c48.263,25.722 36.385,-50.75 35.894,-70.456c-1.025,-41.269 2.788,-84.175 -1.934,-125.053c-14.353,-124.185 -126.107,-17.013 -161.778,36.406c-14.963,22.413 -129.06,188.181 -44.335,156.938c24.263,-8.947 78.491,-118.847 94.785,-143.475c53.675,-81.079 56.718,-14.772 60.25,42.159" style="fill:#161715;"/><defs><radialGradient id="_Radial1" cx="0" cy="0" r="1" gradientUnits="userSpaceOnUse" gradientTransform="matrix(817.62,0,0,817.62,817.62,817.614)"><stop offset="0" style="stop-color:#fff;stop-opacity:1"/><stop offset="0.97" style="stop-color:#fff;stop-opacity:1"/><stop offset="1" style="stop-color:#c5c7c7;stop-opacity:1"/></radialGradient><linearGradient id="_Linear2" x1="0" y1="0" x2="1" y2="0" gradientUnits="userSpaceOnUse" gradientTransform="matrix(-201.067,-239.622,239.622,-201.067,501.021,465.158)"><stop offset="0" style="stop-color:#fff;stop-opacity:1"/><stop offset="0.62" style="stop-color:#fff;stop-opacity:1"/><stop offset="1" style="stop-color:#c5c7c7;stop-opacity:1"/></linearGradient><linearGradient id="_Linear3" x1="0" y1="0" x2="1" y2="0" gradientUnits="userSpaceOnUse" gradientTransform="matrix(201.063,239.618,-239.618,201.063,1140.15,1169.53)"><stop offset="0" style="stop-color:#fff;stop-opacity:1"/><stop offset="0.62" style="stop-color:#fff;stop-opacity:1"/><stop offset="1" style="stop-color:#c5c7c7;stop-opacity:1"/></linearGradient></defs></svg>